<svg xmlns="http://www.w3.org/2000/svg" version="1.1" xmlns:xlink="http://www.w3.org/1999/xlink"
  xmlns:svgjs="http://svgjs.dev/svgjs" preserveAspectRatio="xMidYMid slice" width="100%"
  height="60%">
  <defs>
    <pattern id="pixel-pattern" width="20" height="20" patternUnits="userSpaceOnUse"
      patternTransform="translate(0 0) scale(25) rotate(0)" shape-rendering="crispEdges">
      <rect width="1" height="1" x="0" y="0" fill="#D9AE94" fill-opacity="0.5"></rect>
      <rect width="1" height="1" x="5" y="0" fill="#FFCB69" fill-opacity="0.5"></rect>
      <rect width="1" height="1" x="8" y="0" fill="#D9AE94" fill-opacity="0.5"></rect>
      <rect width="1" height="1" x="14" y="0" fill="#FFCB69" fill-opacity="0.5"></rect>
      <rect width="1" height="1" x="2" y="1" fill="#D9AE94" fill-opacity="0.5"></rect>
      <rect width="1" height="1" x="12" y="1" fill="#FFCB69" fill-opacity="0.5"></rect>
      <rect width="1" height="1" x="4" y="2" fill="#D9AE94" fill-opacity="0.5"></rect>
      <rect width="1" height="1" x="8" y="2" fill="#FFCB69" fill-opacity="0.5"></rect>
      <rect width="1" height="1" x="18" y="2" fill="#D9AE94" fill-opacity="0.5"></rect>
      <rect width="1" height="1" x="6" y="3" fill="#FFCB69" fill-opacity="0.5"></rect>
      <rect width="1" height="1" x="1" y="4" fill="#FFCB69" fill-opacity="0.5"></rect>
      <rect width="1" height="1" x="9" y="4" fill="#FFCB69" fill-opacity="0.5"></rect>
      <rect width="1" height="1" x="11" y="4" fill="#D9AE94" fill-opacity="0.5"></rect>
      <rect width="1" height="1" x="12" y="4" fill="#D9AE94" fill-opacity="0.5"></rect>
      <rect width="1" height="1" x="14" y="4" fill="#FFCB69" fill-opacity="0.5"></rect>
      <rect width="1" height="1" x="5" y="5" fill="#FFCB69" fill-opacity="0.5"></rect>
      <rect width="1" height="1" x="8" y="5" fill="#D9AE94" fill-opacity="0.5"></rect>
      <rect width="1" height="1" x="17" y="5" fill="#FFCB69" fill-opacity="0.5"></rect>
      <rect width="1" height="1" x="19" y="5" fill="#FFCB69" fill-opacity="0.5"></rect>
      <rect width="1" height="1" x="0" y="6" fill="#D9AE94" fill-opacity="0.5"></rect>
      <rect width="1" height="1" x="3" y="6" fill="#FFCB69" fill-opacity="0.5"></rect>
      <rect width="1" height="1" x="11" y="6" fill="#D9AE94" fill-opacity="0.5"></rect>
      <rect width="1" height="1" x="16" y="6" fill="#D9AE94" fill-opacity="0.5"></rect>
      <rect width="1" height="1" x="1" y="7" fill="#D9AE94" fill-opacity="0.5"></rect>
      <rect width="1" height="1" x="8" y="7" fill="#FFCB69" fill-opacity="0.5"></rect>
      <rect width="1" height="1" x="13" y="7" fill="#D9AE94" fill-opacity="0.5"></rect>
      <rect width="1" height="1" x="15" y="7" fill="#FFCB69" fill-opacity="0.5"></rect>
      <rect width="1" height="1" x="19" y="7" fill="#D9AE94" fill-opacity="0.5"></rect>
      <rect width="1" height="1" x="4" y="8" fill="#FFCB69" fill-opacity="0.5"></rect>
      <rect width="1" height="1" x="6" y="8" fill="#D9AE94" fill-opacity="0.5"></rect>
      <rect width="1" height="1" x="14" y="8" fill="#D9AE94" fill-opacity="0.5"></rect>
      <rect width="1" height="1" x="16" y="8" fill="#FFCB69" fill-opacity="0.5"></rect>
      <rect width="1" height="1" x="17" y="8" fill="#D9AE94" fill-opacity="0.5"></rect>
      <rect width="1" height="1" x="1" y="9" fill="#D9AE94" fill-opacity="0.5"></rect>
      <rect width="1" height="1" x="3" y="9" fill="#FFCB69" fill-opacity="0.5"></rect>
      <rect width="1" height="1" x="7" y="9" fill="#D9AE94" fill-opacity="0.5"></rect>
      <rect width="1" height="1" x="8" y="9" fill="#D9AE94" fill-opacity="0.5"></rect>
      <rect width="1" height="1" x="11" y="9" fill="#FFCB69" fill-opacity="0.5"></rect>
      <rect width="1" height="1" x="13" y="9" fill="#D9AE94" fill-opacity="0.5"></rect>
      <rect width="1" height="1" x="15" y="9" fill="#D9AE94" fill-opacity="0.5"></rect>
      <rect width="1" height="1" x="17" y="9" fill="#FFCB69" fill-opacity="0.5"></rect>
      <rect width="1" height="1" x="19" y="9" fill="#FFCB69" fill-opacity="0.5"></rect>
      <rect width="1" height="1" x="1" y="10" fill="#D9AE94" fill-opacity="0.5"></rect>
      <rect width="1" height="1" x="5" y="10" fill="#D9AE94" fill-opacity="0.5"></rect>
      <rect width="1" height="1" x="6" y="10" fill="#FFCB69" fill-opacity="0.5"></rect>
      <rect width="1" height="1" x="9" y="10" fill="#D9AE94" fill-opacity="0.5"></rect>
      <rect width="1" height="1" x="14" y="10" fill="#FFCB69" fill-opacity="0.5"></rect>
      <rect width="1" height="1" x="17" y="10" fill="#D9AE94" fill-opacity="0.5"></rect>
      <rect width="1" height="1" x="19" y="10" fill="#D9AE94" fill-opacity="0.5"></rect>
      <rect width="1" height="1" x="4" y="11" fill="#D9AE94" fill-opacity="0.5"></rect>
      <rect width="1" height="1" x="7" y="11" fill="#D9AE94" fill-opacity="0.5"></rect>
      <rect width="1" height="1" x="9" y="11" fill="#FFCB69" fill-opacity="0.5"></rect>
      <rect width="1" height="1" x="10" y="11" fill="#FFCB69" fill-opacity="0.5"></rect>
      <rect width="1" height="1" x="12" y="11" fill="#FFCB69" fill-opacity="0.5"></rect>
      <rect width="1" height="1" x="14" y="11" fill="#D9AE94" fill-opacity="0.5"></rect>
      <rect width="1" height="1" x="16" y="11" fill="#FFCB69" fill-opacity="0.5"></rect>
      <rect width="1" height="1" x="18" y="11" fill="#D9AE94" fill-opacity="0.5"></rect>
      <rect width="1" height="1" x="0" y="12" fill="#D9AE94" fill-opacity="0.5"></rect>
      <rect width="1" height="1" x="2" y="12" fill="#D9AE94" fill-opacity="0.5"></rect>
      <rect width="1" height="1" x="4" y="12" fill="#FFCB69" fill-opacity="0.5"></rect>
      <rect width="1" height="1" x="5" y="12" fill="#D9AE94" fill-opacity="0.5"></rect>
      <rect width="1" height="1" x="8" y="12" fill="#FFCB69" fill-opacity="0.5"></rect>
      <rect width="1" height="1" x="11" y="12" fill="#D9AE94" fill-opacity="0.5"></rect>
      <rect width="1" height="1" x="13" y="12" fill="#FFCB69" fill-opacity="0.5"></rect>
      <rect width="1" height="1" x="14" y="12" fill="#FFCB69" fill-opacity="0.5"></rect>
      <rect width="1" height="1" x="15" y="12" fill="#FFCB69" fill-opacity="0.5"></rect>
      <rect width="1" height="1" x="17" y="12" fill="#FFCB69" fill-opacity="0.5"></rect>
      <rect width="1" height="1" x="19" y="12" fill="#FFCB69" fill-opacity="0.5"></rect>
      <rect width="1" height="1" x="4" y="13" fill="#D9AE94" fill-opacity="0.5"></rect>
      <rect width="1" height="1" x="6" y="13" fill="#D9AE94" fill-opacity="0.5"></rect>
      <rect width="1" height="1" x="9" y="13" fill="#FFCB69" fill-opacity="0.5"></rect>
      <rect width="1" height="1" x="11" y="13" fill="#D9AE94" fill-opacity="0.5"></rect>
      <rect width="1" height="1" x="12" y="13" fill="#FFCB69" fill-opacity="0.5"></rect>
      <rect width="1" height="1" x="14" y="13" fill="#D9AE94" fill-opacity="0.5"></rect>
      <rect width="1" height="1" x="15" y="13" fill="#D9AE94" fill-opacity="0.5"></rect>
      <rect width="1" height="1" x="17" y="13" fill="#FFCB69" fill-opacity="0.5"></rect>
      <rect width="1" height="1" x="0" y="14" fill="#FFCB69" fill-opacity="0.5"></rect>
      <rect width="1" height="1" x="1" y="14" fill="#FFCB69" fill-opacity="0.5"></rect>
      <rect width="1" height="1" x="3" y="14" fill="#FFCB69" fill-opacity="0.5"></rect>
      <rect width="1" height="1" x="4" y="14" fill="#FFCB69" fill-opacity="0.5"></rect>
      <rect width="1" height="1" x="6" y="14" fill="#FFCB69" fill-opacity="0.5"></rect>
      <rect width="1" height="1" x="8" y="14" fill="#FFCB69" fill-opacity="0.5"></rect>
      <rect width="1" height="1" x="9" y="14" fill="#D9AE94" fill-opacity="0.5"></rect>
      <rect width="1" height="1" x="11" y="14" fill="#D9AE94" fill-opacity="0.5"></rect>
      <rect width="1" height="1" x="12" y="14" fill="#D9AE94" fill-opacity="0.5"></rect>
      <rect width="1" height="1" x="14" y="14" fill="#D9AE94" fill-opacity="0.5"></rect>
      <rect width="1" height="1" x="16" y="14" fill="#D9AE94" fill-opacity="0.5"></rect>
      <rect width="1" height="1" x="19" y="14" fill="#FFCB69" fill-opacity="0.5"></rect>
      <rect width="1" height="1" x="0" y="15" fill="#FFCB69" fill-opacity="0.5"></rect>
      <rect width="1" height="1" x="1" y="15" fill="#D9AE94" fill-opacity="0.5"></rect>
      <rect width="1" height="1" x="2" y="15" fill="#D9AE94" fill-opacity="0.5"></rect>
      <rect width="1" height="1" x="4" y="15" fill="#FFCB69" fill-opacity="0.5"></rect>
      <rect width="1" height="1" x="5" y="15" fill="#D9AE94" fill-opacity="0.5"></rect>
      <rect width="1" height="1" x="6" y="15" fill="#D9AE94" fill-opacity="0.5"></rect>
      <rect width="1" height="1" x="7" y="15" fill="#FFCB69" fill-opacity="0.5"></rect>
      <rect width="1" height="1" x="9" y="15" fill="#D9AE94" fill-opacity="0.5"></rect>
      <rect width="1" height="1" x="10" y="15" fill="#FFCB69" fill-opacity="0.5"></rect>
      <rect width="1" height="1" x="13" y="15" fill="#D9AE94" fill-opacity="0.5"></rect>
      <rect width="1" height="1" x="14" y="15" fill="#FFCB69" fill-opacity="0.5"></rect>
      <rect width="1" height="1" x="16" y="15" fill="#FFCB69" fill-opacity="0.5"></rect>
      <rect width="1" height="1" x="17" y="15" fill="#D9AE94" fill-opacity="0.5"></rect>
      <rect width="1" height="1" x="18" y="15" fill="#FFCB69" fill-opacity="0.5"></rect>
      <rect width="1" height="1" x="19" y="15" fill="#D9AE94" fill-opacity="0.5"></rect>
      <rect width="1" height="1" x="0" y="16" fill="#FFCB69" fill-opacity="0.5"></rect>
      <rect width="1" height="1" x="2" y="16" fill="#D9AE94" fill-opacity="0.5"></rect>
      <rect width="1" height="1" x="3" y="16" fill="#FFCB69" fill-opacity="0.5"></rect>
      <rect width="1" height="1" x="5" y="16" fill="#D9AE94" fill-opacity="0.5"></rect>
      <rect width="1" height="1" x="6" y="16" fill="#FFCB69" fill-opacity="0.5"></rect>
      <rect width="1" height="1" x="7" y="16" fill="#FFCB69" fill-opacity="0.5"></rect>
      <rect width="1" height="1" x="8" y="16" fill="#D9AE94" fill-opacity="0.5"></rect>
      <rect width="1" height="1" x="9" y="16" fill="#D9AE94" fill-opacity="0.5"></rect>
      <rect width="1" height="1" x="11" y="16" fill="#D9AE94" fill-opacity="0.5"></rect>
      <rect width="1" height="1" x="13" y="16" fill="#D9AE94" fill-opacity="0.5"></rect>
      <rect width="1" height="1" x="15" y="16" fill="#FFCB69" fill-opacity="0.5"></rect>
      <rect width="1" height="1" x="17" y="16" fill="#D9AE94" fill-opacity="0.5"></rect>
      <rect width="1" height="1" x="18" y="16" fill="#FFCB69" fill-opacity="0.5"></rect>
      <rect width="1" height="1" x="0" y="17" fill="#D9AE94" fill-opacity="0.5"></rect>
      <rect width="1" height="1" x="1" y="17" fill="#D9AE94" fill-opacity="0.5"></rect>
      <rect width="1" height="1" x="3" y="17" fill="#D9AE94" fill-opacity="0.5"></rect>
      <rect width="1" height="1" x="4" y="17" fill="#FFCB69" fill-opacity="0.5"></rect>
      <rect width="1" height="1" x="5" y="17" fill="#FFCB69" fill-opacity="0.5"></rect>
      <rect width="1" height="1" x="7" y="17" fill="#FFCB69" fill-opacity="0.5"></rect>
      <rect width="1" height="1" x="9" y="17" fill="#FFCB69" fill-opacity="0.5"></rect>
      <rect width="1" height="1" x="10" y="17" fill="#D9AE94" fill-opacity="0.5"></rect>
      <rect width="1" height="1" x="11" y="17" fill="#D9AE94" fill-opacity="0.5"></rect>
      <rect width="1" height="1" x="12" y="17" fill="#FFCB69" fill-opacity="0.5"></rect>
      <rect width="1" height="1" x="14" y="17" fill="#D9AE94" fill-opacity="0.5"></rect>
      <rect width="1" height="1" x="16" y="17" fill="#D9AE94" fill-opacity="0.5"></rect>
      <rect width="1" height="1" x="17" y="17" fill="#D9AE94" fill-opacity="0.5"></rect>
      <rect width="1" height="1" x="18" y="17" fill="#D9AE94" fill-opacity="0.5"></rect>
      <rect width="1" height="1" x="19" y="17" fill="#FFCB69" fill-opacity="0.5"></rect>
      <rect width="1" height="1" x="0" y="18" fill="#FFCB69" fill-opacity="0.5"></rect>
      <rect width="1" height="1" x="2" y="18" fill="#FFCB69" fill-opacity="0.5"></rect>
      <rect width="1" height="1" x="4" y="18" fill="#FFCB69" fill-opacity="0.5"></rect>
      <rect width="1" height="1" x="5" y="18" fill="#FFCB69" fill-opacity="0.5"></rect>
      <rect width="1" height="1" x="6" y="18" fill="#FFCB69" fill-opacity="0.5"></rect>
      <rect width="1" height="1" x="7" y="18" fill="#FFCB69" fill-opacity="0.5"></rect>
      <rect width="1" height="1" x="9" y="18" fill="#FFCB69" fill-opacity="0.5"></rect>
      <rect width="1" height="1" x="12" y="18" fill="#D9AE94" fill-opacity="0.5"></rect>
      <rect width="1" height="1" x="13" y="18" fill="#D9AE94" fill-opacity="0.5"></rect>
      <rect width="1" height="1" x="15" y="18" fill="#D9AE94" fill-opacity="0.5"></rect>
      <rect width="1" height="1" x="16" y="18" fill="#D9AE94" fill-opacity="0.5"></rect>
      <rect width="1" height="1" x="18" y="18" fill="#FFCB69" fill-opacity="0.5"></rect>
      <rect width="1" height="1" x="19" y="18" fill="#D9AE94" fill-opacity="0.5"></rect>
      <rect width="1" height="1" x="0" y="19" fill="#D9AE94" fill-opacity="0.5"></rect>
      <rect width="1" height="1" x="1" y="19" fill="#FFCB69" fill-opacity="0.5"></rect>
      <rect width="1" height="1" x="2" y="19" fill="#D9AE94" fill-opacity="0.5"></rect>
      <rect width="1" height="1" x="3" y="19" fill="#D9AE94" fill-opacity="0.5"></rect>
      <rect width="1" height="1" x="4" y="19" fill="#D9AE94" fill-opacity="0.5"></rect>
      <rect width="1" height="1" x="6" y="19" fill="#FFCB69" fill-opacity="0.5"></rect>
      <rect width="1" height="1" x="8" y="19" fill="#FFCB69" fill-opacity="0.5"></rect>
      <rect width="1" height="1" x="9" y="19" fill="#FFCB69" fill-opacity="0.5"></rect>
      <rect width="1" height="1" x="10" y="19" fill="#FFCB69" fill-opacity="0.5"></rect>
      <rect width="1" height="1" x="11" y="19" fill="#D9AE94" fill-opacity="0.5"></rect>
      <rect width="1" height="1" x="12" y="19" fill="#FFCB69" fill-opacity="0.5"></rect>
      <rect width="1" height="1" x="14" y="19" fill="#FFCB69" fill-opacity="0.5"></rect>
      <rect width="1" height="1" x="16" y="19" fill="#D9AE94" fill-opacity="0.5"></rect>
      <rect width="1" height="1" x="17" y="19" fill="#FFCB69" fill-opacity="0.5"></rect>
      <rect width="1" height="1" x="19" y="19" fill="#D9AE94" fill-opacity="0.5"></rect>
    </pattern>
  </defs>
  <rect width="100%" height="100%" fill="url(#pixel-pattern)"></rect>
</svg>
